<svg width="24" height="24" viewBox="0 0 24 24" fill="none" xmlns="http://www.w3.org/2000/svg">
<g clip-path="url(#clip0_99_3626)">
<path d="M23.242 7.18184L22.057 6.34884L22.958 3.10984C23.087 2.52784 22.914 1.92884 22.492 1.50784C22.07 1.08684 21.469 0.912836 20.84 1.05484L17.768 1.90984C17.768 1.90984 17.203 0.781836 17.166 0.731836C16.806 0.251836 16.234 -0.0291641 15.631 0.00183586C15.031 0.0238359 14.48 0.339836 14.122 0.904836L11.85 5.06384L10.174 1.91784C9.89401 1.45084 9.42501 1.12684 8.88801 1.03084C8.34901 0.933836 7.80001 1.07484 7.37401 1.41484C7.33201 1.44884 6.18601 2.70984 6.18601 2.70984L4.69101 1.27884C4.40101 1.00084 3.97501 0.923836 3.60701 1.08184C3.23801 1.23884 3.00001 1.60084 3.00001 2.00084V4.00084H1.71101C1.11401 4.00084 0.571006 4.30384 0.257006 4.81084C-0.0569942 5.31784 -0.0859942 5.93884 0.212006 6.53284L3.05001 11.3718C3.17601 11.6458 3.17201 11.9618 3.04001 12.2298C3.04001 12.2298 1.30301 14.4368 1.28501 14.4648C0.965006 14.9688 0.912006 15.5998 1.14201 16.1508C1.37201 16.7018 1.85701 17.1078 2.53801 17.2518L5.04001 17.5468L0.293006 22.2928C-0.0979941 22.6838 -0.0979941 23.3158 0.293006 23.7068C0.488006 23.9018 0.744006 23.9998 1.00001 23.9998C1.25601 23.9998 1.51201 23.9018 1.70701 23.7068L6.45501 18.9588L6.76401 21.5588C6.89201 22.1418 7.29701 22.6278 7.84801 22.8578C8.39901 23.0878 9.02901 23.0348 9.53401 22.7148C9.56301 22.6958 11.769 20.9598 11.769 20.9598C12.036 20.8278 12.348 20.8208 12.541 20.9038L17.527 23.8208C17.769 23.9418 18.03 24.0008 18.29 24.0008C18.602 24.0008 18.913 23.9148 19.189 23.7428C19.696 23.4288 19.999 22.8858 19.999 22.2888V20.9998H21.999C22.399 20.9998 22.761 20.7608 22.918 20.3928C23.076 20.0248 22.998 19.5978 22.721 19.3088L21.258 17.7808C21.258 17.7808 22.561 16.4888 22.585 16.4578C22.933 16.0218 23.071 15.4578 22.962 14.9108C22.854 14.3638 22.511 13.8958 21.935 13.5818L18.989 12.3148C18.989 12.3148 23.157 10.2078 23.192 10.1838C23.682 9.85284 23.984 9.30284 23.998 8.71184C24.013 8.12084 23.739 7.55584 23.241 7.18284L23.242 7.18184ZM17.459 10.8718C16.99 11.2468 16.73 11.8288 16.765 12.4288C16.8 13.0288 17.125 13.5768 17.634 13.8958C17.677 13.9228 20.906 15.3158 20.906 15.3158L19.153 17.0518C18.765 17.4358 18.757 18.0598 19.134 18.4538L19.657 19.0008H18.999C18.447 19.0008 17.999 19.4488 17.999 20.0008V21.7828L13.466 19.1338C13.067 18.9498 12.638 18.8588 12.21 18.8588C11.695 18.8588 11.181 18.9908 10.723 19.2528C10.68 19.2768 8.68901 20.8428 8.68901 20.8428L8.25501 17.1598L12.707 12.7078C13.098 12.3168 13.098 11.6848 12.707 11.2938C12.316 10.9028 11.684 10.9028 11.293 11.2938L6.84001 15.7468L3.15501 15.3158C3.15501 15.3158 4.72301 13.3198 4.74801 13.2768C5.22701 12.4378 5.27201 11.4118 4.82201 10.4468L2.21701 5.99984H4.00101C4.55301 5.99984 5.00101 5.55184 5.00101 4.99984V4.34184L5.54801 4.86484C5.74301 5.05184 5.99401 5.15184 6.27601 5.14184C6.54601 5.13184 6.80001 5.01384 6.98201 4.81284L8.53901 3.09184L10.283 6.36484C10.601 6.87384 11.149 7.19884 11.749 7.23384C12.348 7.26084 12.931 7.00884 13.307 6.54084C13.343 6.49584 15.687 2.20984 15.687 2.20984L16.344 3.53784C16.557 3.96884 17.048 4.18784 17.509 4.05784L20.884 3.11784L19.945 6.49284C19.831 6.90084 19.987 7.33584 20.334 7.57884L21.839 8.63584C21.839 8.63584 17.516 10.8268 17.463 10.8698L17.459 10.8718Z" fill="#54595F"/>
</g>
<defs>
<clipPath id="clip0_99_3626">
<rect width="24" height="24" fill="white"/>
</clipPath>
</defs>
</svg>
