<svg width="15" height="17" viewBox="0 0 15 17" fill="none" xmlns="http://www.w3.org/2000/svg">
<path d="M14.6157 11.0498C14.2977 9.81074 12.7303 8.36154 10.9856 7.1487C11.2963 6.95322 11.5647 6.68172 11.7604 6.34282C12.1764 5.62228 12.163 4.76928 11.7996 4.08221C12.1772 4.07775 12.6602 4.16804 13.2158 4.48881C13.5352 4.67321 13.9427 4.5636 14.1267 4.24491C14.3107 3.92621 14.2019 3.51851 13.8825 3.33411C12.7395 2.67423 11.7558 2.68285 11.0933 2.82999C10.8892 2.18326 10.4051 1.32644 9.26216 0.666556C8.94278 0.482161 8.53529 0.591764 8.35129 0.910462C8.16729 1.22916 8.27612 1.63686 8.5955 1.82126C9.15052 2.1417 9.47082 2.51522 9.65575 2.84447C8.87905 2.87331 8.13394 3.28759 7.7176 4.0087C7.52194 4.34761 7.42159 4.71614 7.40711 5.08268C5.48474 4.17756 3.44623 3.54565 2.21359 3.88938C0.670987 4.3205 -0.260014 5.93304 0.138258 7.48396C0.332754 8.24212 0.810009 8.87331 1.48169 9.2611C2.1089 9.62322 2.83373 9.73224 3.54076 9.57465C2.92913 11.3369 2.68052 13.4428 2.75895 14.5527C2.79655 15.0971 3.10106 15.5846 3.57176 15.8564C4.04246 16.1282 4.61697 16.1481 5.1069 15.909C6.10766 15.4214 7.80705 14.1532 9.02742 12.7424C9.24388 13.4331 9.70128 14.0067 10.3285 14.3688C11.0002 14.7566 11.7854 14.8543 12.5393 14.6437C14.0815 14.2131 15.0125 12.6006 14.6149 11.0485L14.6157 11.0498ZM10.2396 4.31007C10.7172 4.58583 10.8816 5.19879 10.6059 5.67626C10.3302 6.15373 9.71721 6.31788 9.23958 6.04212C8.76195 5.76636 8.5976 5.1534 8.87327 4.67593C9.14893 4.19846 9.76195 4.03431 10.2396 4.31007ZM7.87491 7.81227C8.03245 7.7408 8.1875 7.67097 8.33858 7.6027C8.35499 7.76767 8.37204 7.93687 8.38892 8.10904C8.4605 8.82933 8.53612 9.59198 8.61933 10.3028L5.85983 8.70962C6.51704 8.42626 7.21499 8.111 7.87491 7.81227ZM3.33488 8.25335C2.52558 8.47738 1.64127 7.96837 1.4313 7.15432C1.21207 6.30029 1.72474 5.41232 2.5743 5.17458C3.27405 4.97891 5.02808 5.35266 7.40429 6.56138C6.0093 7.19165 4.19537 8.01269 3.33488 8.25335ZM4.52374 14.7117C4.39725 14.7734 4.29156 14.7324 4.24016 14.7027C4.18876 14.673 4.1004 14.602 4.09091 14.461C4.05537 13.9571 4.1036 13.2067 4.23004 12.3875L6.25028 13.5539C5.60463 14.0733 4.97828 14.4899 4.52374 14.7117ZM7.30506 12.6232L4.50859 11.0087C4.62262 10.5564 4.75827 10.1121 4.91537 9.70394L8.23104 11.6182C7.95613 11.9584 7.6397 12.2984 7.30448 12.6229L7.30506 12.6232ZM12.1817 13.3611C11.3714 13.5868 10.4884 13.0755 10.2781 12.262C10.0559 11.3971 9.85944 9.4153 9.70811 7.89149C11.943 9.34499 13.1443 10.6775 13.3244 11.3804C13.5433 12.235 13.0307 13.123 12.1814 13.3601L12.1817 13.3611Z" fill="#FFC700"/>
</svg>
