<svg width="25" height="25" viewBox="0 0 25 25" fill="none" xmlns="http://www.w3.org/2000/svg">
<path d="M22.117 2.92822H22.499C23.051 2.92822 23.499 2.48022 23.499 1.92822C23.499 1.37622 23.051 0.928223 22.499 0.928223H2.49902C1.94702 0.928223 1.49902 1.37622 1.49902 1.92822C1.49902 2.48022 1.94702 2.92822 2.49902 2.92822H2.88102C1.40602 5.20622 0.499023 8.11222 0.499023 10.8332C0.499023 15.0462 3.13602 20.0392 4.27002 21.9892C5.32302 23.8022 7.30202 24.9282 9.43302 24.9282H15.567C17.698 24.9282 19.676 23.8022 20.73 21.9902C21.864 20.0392 24.501 15.0472 24.501 10.8332C24.501 8.11222 23.594 5.20622 22.119 2.92822H22.117ZM18.999 20.9852C18.302 22.1832 16.987 22.9282 15.566 22.9282H9.43202C8.01102 22.9282 6.69602 22.1832 5.99902 20.9842C3.80802 17.2132 2.49902 13.4192 2.49902 10.8332C2.49902 8.06122 3.63202 4.94422 5.34902 2.92822H5.99902C6.82602 2.92822 7.49902 3.60122 7.49902 4.42822V11.9282C7.49902 12.4802 7.94702 12.9282 8.49902 12.9282C9.05102 12.9282 9.49902 12.4802 9.49902 11.9282V4.42822C9.49902 3.60122 10.172 2.92822 10.999 2.92822C11.826 2.92822 12.499 3.60122 12.499 4.42822V7.92822C12.499 8.48022 12.947 8.92822 13.499 8.92822C14.051 8.92822 14.499 8.48022 14.499 7.92822V4.42822C14.499 3.60122 15.172 2.92822 15.999 2.92822H19.649C21.366 4.94422 22.499 8.06022 22.499 10.8332C22.499 13.4182 21.19 17.2132 18.999 20.9852Z" fill="#FFC700"/>
</svg>
