<svg width="25" height="24" viewBox="0 0 25 24" fill="none" xmlns="http://www.w3.org/2000/svg">
<g clip-path="url(#clip0_101_4159)">
<path d="M23.9571 11.4138C23.7951 11.1208 23.6091 10.8578 23.4131 10.6098C23.3961 10.4388 23.3791 10.2678 23.3531 10.0718C23.3031 9.69379 23.3821 9.31379 23.5821 8.97379C24.1271 8.03779 25.6861 4.74979 22.7961 1.65379C19.7471 -1.18821 16.4601 0.372794 15.5261 0.917794C15.1851 1.11579 14.8091 1.19479 14.4281 1.14679C14.2301 1.12079 14.0581 1.10379 13.8871 1.08679C13.6351 0.887794 13.3611 0.696794 13.0201 0.510794C9.7811 -0.978206 7.5221 1.16179 6.9061 1.85279C6.7101 2.07379 6.4351 2.22679 6.1321 2.28579C5.3131 2.44279 4.8071 2.61079 4.3611 2.75979L4.1241 2.83779C3.1551 3.15079 2.3691 3.82379 1.9111 4.73379C1.5901 5.37079 1.4581 6.08179 1.5311 6.79179C1.5741 7.21679 1.4701 7.61879 1.2281 7.95679C1.1151 8.11479 1.0121 8.28379 0.923097 8.46179C0.406097 9.48679 0.363097 10.6888 0.805097 11.7568C0.893097 11.9698 0.915097 12.1718 0.872097 12.3598C0.566097 13.6668 0.424097 16.2638 0.449097 20.0808C0.463097 22.2578 2.2461 24.0398 4.4231 24.0548C4.7121 24.0568 4.9931 24.0578 5.2671 24.0578C8.6241 24.0578 10.9361 23.9148 12.1441 23.6318C12.3321 23.5878 12.5341 23.6108 12.7461 23.6978C13.8141 24.1418 15.0151 24.0968 16.0401 23.5808C16.2211 23.4888 16.3891 23.3878 16.5471 23.2738C16.8821 23.0348 17.2771 22.9248 17.7111 22.9718C18.4171 23.0428 19.1311 22.9108 19.7681 22.5908C20.6771 22.1328 21.3511 21.3468 21.6641 20.3778L21.7421 20.1408C21.8901 19.6948 22.0581 19.1888 22.2171 18.3688C22.2751 18.0658 22.4281 17.7918 22.6491 17.5958C23.3401 16.9798 25.4821 14.7198 23.9591 11.4168L23.9571 11.4138ZM16.5331 2.64579C17.3451 2.17079 19.4501 1.26979 21.3831 3.06679C23.2311 5.04879 22.3281 7.15379 21.8551 7.96579C21.4371 8.68179 21.2651 9.52179 21.3721 10.3318C21.4901 11.2258 21.4891 11.7558 21.4891 12.3168V12.6268C21.4931 13.2598 21.2491 13.8548 20.8011 14.3018C20.4911 14.6118 20.1021 14.8248 19.6741 14.9188C18.6381 15.1488 17.7671 15.7148 17.1561 16.5528C17.0831 16.6528 17.0021 16.7468 16.9101 16.8378C16.3721 17.3768 15.6211 17.6408 14.8541 17.5718C14.1761 17.5028 13.4951 17.6718 12.8781 18.0478C11.4781 18.9008 8.3751 19.6038 5.8621 20.0498L11.9131 13.9988H16.4991C17.0521 13.9988 17.4991 13.5518 17.4991 12.9988C17.4991 12.4458 17.0521 11.9988 16.4991 11.9988H13.9131L17.2061 8.70579C17.5971 8.31479 17.5971 7.68279 17.2061 7.29179C16.8151 6.90079 16.1831 6.90079 15.7921 7.29179L12.4991 10.5848V7.99879C12.4991 7.44579 12.0511 6.99879 11.4991 6.99879C10.9471 6.99879 10.4991 7.44579 10.4991 7.99879V12.5848L4.4481 18.6358C4.8941 16.1238 5.5971 13.0218 6.4511 11.6198C6.8261 11.0038 6.9911 10.3208 6.9271 9.64479C6.8531 8.87579 7.1211 8.12579 7.6621 7.58579C7.7511 7.49579 7.8461 7.41479 7.9441 7.34379C8.7841 6.73079 9.3501 5.85879 9.5791 4.82279C9.6731 4.39579 9.8871 4.00679 10.1971 3.69679C10.6401 3.25379 11.2291 3.00879 11.8571 3.00879H12.1801C12.7471 3.00879 13.2721 3.00879 14.1651 3.12579C14.9751 3.23179 15.8131 3.06079 16.5311 2.64379L16.5331 2.64579ZM2.7101 9.35679C2.7531 9.26979 2.8031 9.19079 2.8551 9.11679C3.3831 8.37979 3.6131 7.50479 3.5201 6.58779C3.4861 6.25879 3.5481 5.92879 3.6971 5.63279C3.9131 5.20379 4.2831 4.88779 4.7391 4.73879L4.9901 4.65679C5.4161 4.51479 5.8191 4.38179 6.5101 4.24879C7.0071 4.15279 7.4711 3.94079 7.8741 3.64679C7.7721 3.88779 7.6831 4.13479 7.6261 4.39279C7.5041 4.94479 7.2061 5.40779 6.7641 5.73079C6.5821 5.86379 6.4091 6.01079 6.2471 6.17279C5.2841 7.13579 4.8061 8.47079 4.9361 9.83479C4.9651 10.1418 4.8481 10.4088 4.7441 10.5788C3.6651 12.3498 2.8931 15.9078 2.4501 18.4588C2.4711 15.7378 2.5981 13.7548 2.8191 12.8108C2.9581 12.2168 2.9011 11.5858 2.6531 10.9888C2.4341 10.4588 2.4541 9.86479 2.7111 9.35579L2.7101 9.35679ZM19.8431 19.5088L19.7611 19.7598C19.6141 20.2158 19.2961 20.5858 18.8671 20.8028C18.5721 20.9508 18.2381 21.0108 17.9111 20.9788C16.9901 20.8898 16.1191 21.1178 15.3821 21.6448C15.3071 21.6988 15.2271 21.7478 15.1391 21.7908C14.6351 22.0468 14.0411 22.0668 13.5101 21.8458C12.9111 21.5998 12.2831 21.5418 11.6881 21.6808C10.7441 21.9008 8.7641 22.0298 6.0381 22.0498C8.5901 21.6058 12.1491 20.8348 13.9211 19.7548C14.0911 19.6508 14.3591 19.5348 14.6641 19.5628C16.0291 19.6978 17.3631 19.2158 18.3251 18.2518C18.4881 18.0888 18.6361 17.9158 18.7691 17.7328C19.0911 17.2928 19.5531 16.9938 20.1061 16.8718C20.3641 16.8148 20.6111 16.7268 20.8521 16.6238C20.5591 17.0258 20.3461 17.4898 20.2511 17.9868C20.1171 18.6778 19.9831 19.0818 19.8421 19.5078L19.8431 19.5088Z" fill="#59595D"/>
</g>
<defs>
<clipPath id="clip0_101_4159">
<rect width="24" height="24" fill="white" transform="translate(0.5)"/>
</clipPath>
</defs>
</svg>
