<svg width="24" height="24" viewBox="0 0 24 24" fill="none" xmlns="http://www.w3.org/2000/svg">
<g clip-path="url(#clip0_99_4092)">
<path d="M22.2708 15.1559C17.8768 14.3999 14.8438 16.5099 12.9998 18.9239V14.7549C13.1968 14.6459 13.3818 14.5129 13.5358 14.3429C14.1728 13.6369 14.6098 12.8889 14.8318 12.1359C15.6518 12.2739 16.4648 12.1899 17.0908 12.0649C17.6618 11.9509 18.1598 11.5969 18.4578 11.0929C18.7598 10.5819 18.8298 9.9659 18.6498 9.4009C18.4768 8.8519 18.1878 8.1529 17.7208 7.5249C18.1878 6.8969 18.4768 6.1979 18.6498 5.6489C18.8298 5.0839 18.7588 4.4669 18.4578 3.9559C18.1598 3.4529 17.6618 3.0979 17.0918 2.9849C16.4668 2.8599 15.6578 2.7769 14.8458 2.9109C14.6308 2.1559 14.1938 1.4099 13.5358 0.680898C12.7548 -0.186101 11.2448 -0.187101 10.4628 0.680898C9.80577 1.4099 9.36876 2.1559 9.15376 2.9099C8.33976 2.7769 7.53176 2.8599 6.90876 2.9839C6.33776 3.0979 5.83876 3.4519 5.54176 3.9559C5.24076 4.4659 5.16976 5.0829 5.34876 5.6469C5.52176 6.1929 5.80876 6.8879 6.27076 7.5139C5.80876 8.1389 5.52176 8.8339 5.34976 9.3799C5.17076 9.9449 5.24076 10.5619 5.54176 11.0719C5.83976 11.5759 6.33776 11.9299 6.90976 12.0439C7.53476 12.1689 8.34576 12.2519 9.16276 12.1159C9.38276 12.8749 9.82176 13.6299 10.4638 14.3419C10.6178 14.5129 10.8028 14.6449 10.9998 14.7549V18.8969C9.15276 16.4979 6.12576 14.4119 1.75376 15.1559C0.687764 15.3379 -0.0582359 16.2819 0.0547641 17.3059C0.262764 19.1989 1.09376 20.7329 2.52376 21.8669C4.84176 23.7059 8.21076 24.0279 10.2868 24.0279C11.1278 24.0279 11.7508 23.9759 12.0128 23.9489C12.2748 23.9749 12.8968 24.0279 13.7378 24.0279C15.8148 24.0279 19.1838 23.7059 21.5018 21.8669C22.9318 20.7329 23.7628 19.1989 23.9708 17.3059C24.0828 16.2819 23.3358 15.3369 22.2708 15.1559ZM10.5108 9.9369C10.3538 9.8439 10.1778 9.7969 10.0008 9.7969C9.83576 9.7969 9.67076 9.8379 9.52176 9.9189C8.81376 10.3069 7.82676 10.1879 7.30076 10.0839L7.25676 9.9839C7.42476 9.4529 7.73676 8.7259 8.26876 8.2839C8.49776 8.0939 8.62976 7.8119 8.62976 7.5149C8.62976 7.2179 8.49776 6.9359 8.26876 6.7459C7.73676 6.3039 7.42476 5.5769 7.25676 5.0459L7.30076 4.9469C7.82476 4.8419 8.81076 4.7249 9.52176 5.1119C9.81776 5.2739 10.1738 5.2759 10.4708 5.1169C10.7678 4.9589 10.9658 4.6619 10.9968 4.3279C11.0068 4.2169 11.0208 4.0729 11.0028 3.9159C11.0308 3.3259 11.3488 2.6889 11.9508 2.0199H12.0518C12.6818 2.7199 13.0008 3.3849 13.0008 3.9989V4.2329C13.0008 4.5859 13.1868 4.9129 13.4898 5.0929C13.7948 5.2739 14.1708 5.2799 14.4788 5.1109C15.1898 4.7239 16.1758 4.8419 16.6998 4.9459C16.6998 4.9459 16.7438 5.0459 16.7448 5.0459C16.5758 5.5809 16.2618 6.3109 15.7238 6.7529C15.4938 6.9429 15.3598 7.2259 15.3598 7.5249C15.3598 7.8239 15.4938 8.1079 15.7248 8.2969C16.2608 8.7379 16.5758 9.4679 16.7448 10.0029L16.7008 10.1029C16.1768 10.2069 15.1898 10.3259 14.4788 9.9389C14.1688 9.7699 13.7928 9.7769 13.4898 9.9569C13.1868 10.1369 13.0008 10.4639 13.0008 10.8169V10.9989C13.0008 11.7859 12.4848 12.5229 12.0518 13.0029H11.9498C11.5168 12.5229 11.0008 11.7849 11.0008 10.9989V10.7959C11.0008 10.4429 10.8148 10.1159 10.5108 9.9359V9.9369ZM3.76276 20.2979C2.75576 19.4969 2.19276 18.4469 2.09076 17.1269C2.59276 17.0419 3.06976 17.0019 3.52176 17.0019C7.59176 17.0019 9.70576 20.2049 10.5768 22.0229C8.81876 22.0579 5.71476 21.8489 3.76276 20.2979ZM20.2628 20.2979C18.3108 21.8489 15.1988 22.0589 13.4508 22.0229C14.4208 20.0019 16.9358 16.2599 21.9828 17.0879C21.8338 18.4469 21.2708 19.4969 20.2628 20.2979ZM12.0008 9.0129C11.1728 9.0129 10.5008 8.3409 10.5008 7.5129C10.5008 6.6849 11.1728 6.0129 12.0008 6.0129C12.8288 6.0129 13.5008 6.6849 13.5008 7.5129C13.5008 8.3409 12.8288 9.0129 12.0008 9.0129Z" fill="#59595D"/>
</g>
<defs>
<clipPath id="clip0_99_4092">
<rect width="24" height="24" fill="white"/>
</clipPath>
</defs>
</svg>
