<svg width="24" height="24" viewBox="0 0 24 24" fill="none" xmlns="http://www.w3.org/2000/svg">
<g clip-path="url(#clip0_101_4142)">
<path d="M23.707 1.69407L13.707 11.6941C13.512 11.8891 13.256 11.9871 13 11.9871C12.744 11.9871 12.488 11.8891 12.293 11.6941C11.902 11.3031 11.902 10.6711 12.293 10.2801L22.293 0.280066C22.684 -0.110934 23.316 -0.110934 23.707 0.280066C24.098 0.671066 24.098 1.30307 23.707 1.69407ZM7.99999 8.98707C8.25599 8.98707 8.51199 8.88907 8.70699 8.69407L13.707 3.69407C14.098 3.30307 14.098 2.67107 13.707 2.28007C13.316 1.88907 12.684 1.88907 12.293 2.28007L7.29299 7.28007C6.90199 7.67107 6.90199 8.30307 7.29299 8.69407C7.48799 8.88907 7.74399 8.98707 7.99999 8.98707ZM20.293 10.2801L15.293 15.2801C14.902 15.6711 14.902 16.3031 15.293 16.6941C15.488 16.8891 15.744 16.9871 16 16.9871C16.256 16.9871 16.512 16.8891 16.707 16.6941L21.707 11.6941C22.098 11.3031 22.098 10.6711 21.707 10.2801C21.316 9.88907 20.684 9.88907 20.293 10.2801ZM11 15.9871H7.99899L6.93699 13.1351C6.79099 12.7441 6.41699 12.4841 5.99999 12.4841C5.58299 12.4841 5.20799 12.7441 5.06299 13.1351L4.00099 15.9871H0.999987C0.580987 15.9871 0.205987 16.2491 0.0619869 16.6421C-0.0830132 17.0361 0.0339869 17.4771 0.353987 17.7491L2.73099 19.6831L1.78999 22.6991C1.66299 23.1041 1.80499 23.5451 2.14399 23.8001C2.32099 23.9331 2.53199 24.0001 2.74399 24.0001C2.93799 24.0001 3.13199 23.9441 3.29999 23.8311L6.00799 22.0191L8.76199 23.8121C9.11699 24.0431 9.58099 24.0251 9.91799 23.7661C10.255 23.5071 10.391 23.0631 10.257 22.6601L9.27799 19.6801L11.644 17.7531C11.965 17.4821 12.083 17.0401 11.939 16.6451C11.795 16.2501 11.419 15.9871 11 15.9871Z" fill="#54595F"/>
</g>
<defs>
<clipPath id="clip0_101_4142">
<rect width="24" height="24" fill="white"/>
</clipPath>
</defs>
</svg>
