<svg width="24" height="24" viewBox="0 0 24 24" fill="none" xmlns="http://www.w3.org/2000/svg">
<g clip-path="url(#clip0_99_4090)">
<path d="M22.7611 13.9711L20.3161 14.6171C19.9589 14.7124 19.625 14.8798 19.3351 15.1091L16.7181 13.5871C17.0861 12.5611 17.0861 11.4391 16.7181 10.4131L19.3351 8.89109C19.625 9.12035 19.9589 9.2878 20.3161 9.38309C20.3161 9.38309 22.9331 10.0621 23.0161 10.0621C23.256 10.0581 23.4865 9.96801 23.6655 9.8082C23.8445 9.64839 23.9601 9.42955 23.9911 9.19161C24.0222 8.95368 23.9666 8.71251 23.8346 8.51212C23.7026 8.31174 23.5029 8.1655 23.2721 8.10009L20.8281 7.45309C20.6451 7.40451 20.4888 7.28531 20.3936 7.12164C20.2983 6.95798 20.2719 6.76322 20.3201 6.58009L20.9671 4.1361C21.0007 4.00911 21.009 3.87674 20.9914 3.74655C20.9739 3.61637 20.9309 3.49091 20.8649 3.37734C20.7988 3.26378 20.7111 3.16433 20.6066 3.08467C20.5022 3.00501 20.3831 2.94671 20.2561 2.91309C20.1291 2.87948 19.9967 2.8712 19.8665 2.88874C19.7363 2.90627 19.6109 2.94928 19.4973 3.0153C19.3838 3.08133 19.2843 3.16907 19.2046 3.27353C19.125 3.37798 19.0667 3.49711 19.0331 3.62409L18.3871 6.06809C18.292 6.42682 18.2722 6.80136 18.3291 7.1681L15.7131 8.68409C15.0034 7.8771 14.0517 7.32142 13.0001 7.10009V4.10009C13.3446 3.96571 13.6575 3.76142 13.9191 3.50009L15.7071 1.71209C15.8952 1.52459 16.0012 1.27001 16.0017 1.00436C16.0022 0.738717 15.8971 0.483766 15.7096 0.295595C15.5221 0.107424 15.2675 0.00144697 15.0018 0.000978125C14.7362 0.000509282 14.4812 0.105587 14.2931 0.293095L12.5051 2.08109C12.3706 2.2141 12.1892 2.2887 12.0001 2.2887C11.811 2.2887 11.6295 2.2141 11.4951 2.08109L9.70707 0.293095C9.51847 0.110937 9.26587 0.0101424 9.00367 0.0124208C8.74147 0.0146992 8.49066 0.119868 8.30525 0.305276C8.11985 0.490684 8.01468 0.741497 8.0124 1.00369C8.01012 1.26589 8.11091 1.51849 8.29307 1.70709L10.0811 3.50009C10.3427 3.76142 10.6556 3.96571 11.0001 4.10009V7.10009C9.94847 7.32142 8.99672 7.8771 8.28707 8.68409L5.67107 7.1621C5.72791 6.79536 5.70816 6.42082 5.61307 6.06209L4.96707 3.62009C4.93345 3.49311 4.87515 3.37398 4.7955 3.26953C4.71584 3.16507 4.61639 3.07733 4.50282 3.0113C4.38926 2.94528 4.2638 2.90227 4.13361 2.88474C4.00343 2.8672 3.87106 2.87548 3.74407 2.90909C3.61708 2.94271 3.49796 3.00101 3.3935 3.08067C3.28905 3.16033 3.2013 3.25978 3.13528 3.37334C3.06926 3.48691 3.02625 3.61237 3.00871 3.74255C2.99118 3.87274 2.99945 4.00511 3.03307 4.13209L3.68007 6.5761C3.72825 6.75922 3.70183 6.95398 3.60659 7.11764C3.51136 7.2813 3.35509 7.40051 3.17207 7.44909L0.728071 8.10009C0.494056 8.16272 0.290729 8.30816 0.155867 8.5094C0.0210052 8.71063 -0.0362222 8.95398 -0.00518254 9.19424C0.0258571 9.43449 0.143053 9.6553 0.324632 9.81566C0.50621 9.97601 0.739825 10.065 0.982071 10.0661C1.06707 10.0661 3.68207 9.38709 3.68207 9.38709C4.03923 9.2918 4.37309 9.12436 4.66307 8.89509L7.28007 10.4171C6.91202 11.4431 6.91202 12.5651 7.28007 13.5911L4.66507 15.1091C4.37509 14.8798 4.04123 14.7124 3.68407 14.6171L1.23907 13.9711C0.990081 13.9227 0.73199 13.9707 0.517059 14.1054C0.302128 14.2401 0.14642 14.4514 0.0814656 14.6966C0.0165114 14.9418 0.047165 15.2025 0.167219 15.426C0.287274 15.6494 0.487756 15.8189 0.728071 15.9001L3.17207 16.5471C3.35509 16.5957 3.51136 16.7149 3.60659 16.8785C3.70183 17.0422 3.72825 17.237 3.68007 17.4201L3.03307 19.8641C2.99945 19.9911 2.99118 20.1234 3.00871 20.2536C3.02625 20.3838 3.06926 20.5093 3.13528 20.6228C3.2013 20.7364 3.28905 20.8359 3.3935 20.9155C3.49796 20.9952 3.61708 21.0535 3.74407 21.0871C3.87106 21.1207 4.00343 21.129 4.13361 21.1115C4.2638 21.0939 4.38926 21.0509 4.50282 20.9849C4.61639 20.9189 4.71584 20.8311 4.7955 20.7267C4.87515 20.6222 4.93345 20.5031 4.96707 20.3761L5.61307 17.9321C5.70816 17.5734 5.72791 17.1988 5.67107 16.8321L8.28707 15.3101C8.99585 16.1193 9.9477 16.6772 11.0001 16.9001V19.9001C10.6558 20.0348 10.3429 20.2391 10.0811 20.5001L8.29307 22.2931C8.11091 22.4817 8.01012 22.7343 8.0124 22.9965C8.01468 23.2587 8.11985 23.5095 8.30525 23.6949C8.49066 23.8803 8.74147 23.9855 9.00367 23.9878C9.26587 23.99 9.51847 23.8893 9.70707 23.7071L11.5001 21.9191C11.6345 21.7861 11.816 21.7115 12.0051 21.7115C12.1942 21.7115 12.3756 21.7861 12.5101 21.9191L14.2981 23.7071C14.4867 23.8893 14.7393 23.99 15.0015 23.9878C15.2637 23.9855 15.5145 23.8803 15.6999 23.6949C15.8853 23.5095 15.9905 23.2587 15.9927 22.9965C15.995 22.7343 15.8942 22.4817 15.7121 22.2931L13.9241 20.5051C13.6612 20.2417 13.3466 20.0357 13.0001 19.9001V16.9001C14.0515 16.679 15.0033 16.1237 15.7131 15.3171L18.3291 16.8391C18.2722 17.2058 18.292 17.5804 18.3871 17.9391L19.0331 20.3831C19.101 20.6396 19.268 20.8585 19.4973 20.9919C19.7267 21.1252 19.9996 21.162 20.2561 21.0941C20.5125 21.0262 20.7315 20.8592 20.8649 20.6298C20.9982 20.4005 21.035 20.1276 20.9671 19.8711L20.3201 17.4271C20.2719 17.244 20.2983 17.0492 20.3936 16.8855C20.4888 16.7219 20.6451 16.6027 20.8281 16.5541L23.2721 15.9071C23.4018 15.8762 23.5241 15.8196 23.6316 15.7407C23.7392 15.6618 23.8299 15.5622 23.8983 15.4478C23.9668 15.3333 24.0117 15.2063 24.0304 15.0743C24.049 14.9422 24.0411 14.8077 24.007 14.6788C23.9729 14.5498 23.9134 14.429 23.8319 14.3234C23.7504 14.2178 23.6486 14.1296 23.5325 14.0639C23.4164 13.9983 23.2883 13.9565 23.1559 13.9411C23.0234 13.9256 22.8892 13.9369 22.7611 13.9741V13.9711ZM12.0001 15.0001C11.2044 15.0001 10.4414 14.684 9.87875 14.1214C9.31614 13.5588 9.00007 12.7957 9.00007 12.0001C9.00007 11.2044 9.31614 10.4414 9.87875 9.87877C10.4414 9.31616 11.2044 9.00009 12.0001 9.00009C12.7957 9.00009 13.5588 9.31616 14.1214 9.87877C14.684 10.4414 15.0001 11.2044 15.0001 12.0001C15.0001 12.7957 14.684 13.5588 14.1214 14.1214C13.5588 14.684 12.7957 15.0001 12.0001 15.0001Z" fill="#59595D"/>
</g>
<defs>
<clipPath id="clip0_99_4090">
<rect width="24" height="24" fill="white"/>
</clipPath>
</defs>
</svg>
